ffmpeg version 4.4.2-0ubuntu0.22.04.1 Copyright (c) 2000-2021 the FFmpeg developers
  built with gcc 11 (Ubuntu 11.2.0-19ubuntu1)
  configuration: --prefix=/usr --extra-version=0ubuntu0.22.04.1 --toolchain=hardened --libdir=/usr/lib/x86_64-linux-gnu --incdir=/usr/include/x86_64-linux-gnu --arch=amd64 --enable-gpl --disable-stripping --enable-gnutls --enable-ladspa --enable-libaom --enable-libass --enable-libbluray --enable-libbs2b --enable-libcaca --enable-libcdio --enable-libcodec2 --enable-libdav1d --enable-libflite --enable-libfontconfig --enable-libfreetype --enable-libfribidi --enable-libgme --enable-libgsm --enable-libjack --enable-libmp3lame --enable-libmysofa --enable-libopenjpeg --enable-libopenmpt --enable-libopus --enable-libpulse --enable-librabbitmq --enable-librubberband --enable-libshine --enable-libsnappy --enable-libsoxr --enable-libspeex --enable-libsrt --enable-libssh --enable-libtheora --enable-libtwolame --enable-libvidstab --enable-libvorbis --enable-libvpx --enable-libwebp --enable-libx265 --enable-libxml2 --enable-libxvid --enable-libzimg --enable-libzmq --enable-libzvbi --enable-lv2 --enable-omx --enable-openal --enable-opencl --enable-opengl --enable-sdl2 --enable-pocketsphinx --enable-librsvg --enable-libmfx --enable-libdc1394 --enable-libdrm --enable-libiec61883 --enable-chromaprint --enable-frei0r --enable-libx264 --enable-shared
  libavutil      56. 70.100 / 56. 70.100
  libavcodec     58.134.100 / 58.134.100
  libavformat    58. 76.100 / 58. 76.100
  libavdevice    58. 13.100 / 58. 13.100
  libavfilter     7.110.100 /  7.110.100
  libswscale      5.  9.100 /  5.  9.100
  libswresample   3.  9.100 /  3.  9.100
  libpostproc    55.  9.100 / 55.  9.100
Input #0, flv, from '/storage/32426326/20250730/32426326-20250730-135400-816.flv':
  Metadata:
    fileSize        : 0
    7.1             : false
    cdn_ip          : 192.168.252.7
    5.1             : false
    2.1             : false
    4.1             : false
    4.0             : false
    displayHeight   : 1440
    encoder         : obs-output module (libobs version 31.0.2)
    fps             : 60
    displayWidth    : 2560
    audiochannels   : 2
    3.1             : false
    Title           : 技术主播没有GG
    Artist          : 蓝音BuBuLine (32426326)
    Comment         : mikufans直播间 32426326 的直播录像
                    : 主播名: 蓝音BuBuLine
                    : 直播标题: 技术主播没有GG
                    : 直播分区: 单机游戏·主机游戏
                    : 录制时间: 2025-07-30T13:54:00.8318998+00:00
                    : 直播服务器:
                    : d1--ov-gotcha07.bilivideo.com [156.59.188.247]
                    : 
                    : 使用 mikufans录播姬 录制 https://rec.danmuji.org
                    : 录播姬版本: 2.17.3
    RecordedBy      : BililiveRecorder mikufans录播姬
    RecordedFrom    : d1--ov-gotcha07.bilivideo.com
    StreamServers   : d1--ov-gotcha07.bilivideo.com [156.59.188.247]
    RecorderVersion : 2.17.3+Branch.tags-v2.17.3.Sha.96407e2eba9a597dd9997c6fb731725f4294a371
    StartTime       : Wed, 30 Jul 2025 13:54:00 +0000
    RoomId          : 32426326
    ShortId         : 0
    Name            : 蓝音BuBuLine
    StreamTitle     : 技术主播没有GG
    AreaNameParent  : 单机游戏
    AreaNameChild   : 主机游戏
  Duration: 05:16:51.04, start: 0.035000, bitrate: 8163 kb/s
  Stream #0:0: Video: h264 (High), yuv420p(tv, bt709, progressive), 2560x1440 [SAR 1:1 DAR 16:9], 10240 kb/s, 60 fps, 60 tbr, 1k tbn, 120 tbc
  Stream #0:1: Audio: aac (LC), 48000 Hz, stereo, fltp, 196 kb/s
Stream mapping:
  Stream #0:0 -> #0:0 (h264 (native) -> png (native))
Press [q] to stop, [?] for help
Output #0, image2, to '/storage/32426326/20250730/32426326-20250730-135400-816.all.thumb.png':
  Metadata:
    fileSize        : 0
    7.1             : false
    cdn_ip          : 192.168.252.7
    5.1             : false
    2.1             : false
    4.1             : false
    4.0             : false
    displayHeight   : 1440
    AreaNameChild   : 主机游戏
    fps             : 60
    displayWidth    : 2560
    audiochannels   : 2
    3.1             : false
    Title           : 技术主播没有GG
    Artist          : 蓝音BuBuLine (32426326)
    Comment         : mikufans直播间 32426326 的直播录像
                    : 主播名: 蓝音BuBuLine
                    : 直播标题: 技术主播没有GG
                    : 直播分区: 单机游戏·主机游戏
                    : 录制时间: 2025-07-30T13:54:00.8318998+00:00
                    : 直播服务器:
                    : d1--ov-gotcha07.bilivideo.com [156.59.188.247]
                    : 
                    : 使用 mikufans录播姬 录制 https://rec.danmuji.org
                    : 录播姬版本: 2.17.3
    RecordedBy      : BililiveRecorder mikufans录播姬
    RecordedFrom    : d1--ov-gotcha07.bilivideo.com
    StreamServers   : d1--ov-gotcha07.bilivideo.com [156.59.188.247]
    RecorderVersion : 2.17.3+Branch.tags-v2.17.3.Sha.96407e2eba9a597dd9997c6fb731725f4294a371
    StartTime       : Wed, 30 Jul 2025 13:54:00 +0000
    RoomId          : 32426326
    ShortId         : 0
    Name            : 蓝音BuBuLine
    StreamTitle     : 技术主播没有GG
    AreaNameParent  : 单机游戏
    encoder         : Lavf58.76.100
  Stream #0:0: Video: png, rgb24(pc, gbr/bt709/bt709, progressive), 2560x1440 [SAR 1:1 DAR 16:9], q=2-31, 200 kb/s, 60 fps, 60 tbn
    Metadata:
      encoder         : Lavc58.134.100 png
frame=    1 fps=0.0 q=0.0 size=N/A time=00:00:00.00 bitrate=N/A speed=   0x    frame=    1 fps=0.0 q=-0.0 Lsize=N/A time=00:00:00.01 bitrate=N/A speed=0.0397x    
video:5019kB audio:0kB subtitle:0kB other streams:0kB global headers:0kB muxing overhead: unknown
ffmpeg version 4.4.2-0ubuntu0.22.04.1 Copyright (c) 2000-2021 the FFmpeg developers
  built with gcc 11 (Ubuntu 11.2.0-19ubuntu1)
  configuration: --prefix=/usr --extra-version=0ubuntu0.22.04.1 --toolchain=hardened --libdir=/usr/lib/x86_64-linux-gnu --incdir=/usr/include/x86_64-linux-gnu --arch=amd64 --enable-gpl --disable-stripping --enable-gnutls --enable-ladspa --enable-libaom --enable-libass --enable-libbluray --enable-libbs2b --enable-libcaca --enable-libcdio --enable-libcodec2 --enable-libdav1d --enable-libflite --enable-libfontconfig --enable-libfreetype --enable-libfribidi --enable-libgme --enable-libgsm --enable-libjack --enable-libmp3lame --enable-libmysofa --enable-libopenjpeg --enable-libopenmpt --enable-libopus --enable-libpulse --enable-librabbitmq --enable-librubberband --enable-libshine --enable-libsnappy --enable-libsoxr --enable-libspeex --enable-libsrt --enable-libssh --enable-libtheora --enable-libtwolame --enable-libvidstab --enable-libvorbis --enable-libvpx --enable-libwebp --enable-libx265 --enable-libxml2 --enable-libxvid --enable-libzimg --enable-libzmq --enable-libzvbi --enable-lv2 --enable-omx --enable-openal --enable-opencl --enable-opengl --enable-sdl2 --enable-pocketsphinx --enable-librsvg --enable-libmfx --enable-libdc1394 --enable-libdrm --enable-libiec61883 --enable-chromaprint --enable-frei0r --enable-libx264 --enable-shared
  libavutil      56. 70.100 / 56. 70.100
  libavcodec     58.134.100 / 58.134.100
  libavformat    58. 76.100 / 58. 76.100
  libavdevice    58. 13.100 / 58. 13.100
  libavfilter     7.110.100 /  7.110.100
  libswscale      5.  9.100 /  5.  9.100
  libswresample   3.  9.100 /  3.  9.100
  libpostproc    55.  9.100 / 55.  9.100
[flv @ 0x5f105a4fe400] Auto-inserting h264_mp4toannexb bitstream filter
Input #0, concat, from '/storage/32426326/20250730/32426326-20250730-135400-816.all.concat.txt':
  Duration: N/A, start: 0.000000, bitrate: 10436 kb/s
  Stream #0:0: Video: h264 (High), yuv420p(tv, bt709, progressive), 2560x1440 [SAR 1:1 DAR 16:9], 10240 kb/s, 60 fps, 60 tbr, 1k tbn, 120 tbc
  Stream #0:1: Audio: aac (LC), 48000 Hz, stereo, fltp, 196 kb/s
Output #0, flv, to '/storage/32426326/20250730/32426326-20250730-135400-816.all.flv':
  Metadata:
    encoder         : Lavf58.76.100
  Stream #0:0: Video: h264 (High) ([7][0][0][0] / 0x0007), yuv420p(tv, bt709, progressive), 2560x1440 [SAR 1:1 DAR 16:9], q=2-31, 10240 kb/s, 60 fps, 60 tbr, 1k tbn, 1k tbc
  Stream #0:1: Audio: aac (LC) ([10][0][0][0] / 0x000A), 48000 Hz, stereo, fltp, 196 kb/s
Stream mapping:
  Stream #0:0 -> #0:0 (copy)
  Stream #0:1 -> #0:1 (copy)
Press [q] to stop, [?] for help
frame=    1 fps=0.0 q=-1.0 size=       0kB time=00:00:00.00 bitrate=N/A speed=N/A    frame= 3688 fps=0.0 q=-1.0 size=   32512kB time=00:01:01.55 bitrate=4326.7kbits/s speed= 123x    frame= 5377 fps=5377 q=-1.0 size=   66304kB time=00:01:29.72 bitrate=6053.5kbits/s speed=89.7x    frame= 7153 fps=4768 q=-1.0 size=  101888kB time=00:01:59.30 bitrate=6996.0kbits/s speed=79.5x    frame= 8791 fps=4390 q=-1.0 size=  136448kB time=00:02:26.59 bitrate=7625.0kbits/s speed=73.2x    frame=10474 fps=4185 q=-1.0 size=  171008kB time=00:02:54.64 bitrate=8021.6kbits/s speed=69.8x    frame=12088 fps=4026 q=-1.0 size=  204800kB time=00:03:21.53 bitrate=8324.8kbits/s speed=67.1x    frame=13656 fps=3899 q=-1.0 size=  237312kB time=00:03:47.65 bitrate=8539.5kbits/s speed=  65x    frame=15346 fps=3834 q=-1.0 size=  272640kB time=00:04:15.80 bitrate=8731.1kbits/s speed=63.9x    frame=17025 fps=3781 q=-1.0 size=  307456kB time=00:04:43.79 bitrate=8875.1kbits/s speed=  63x    frame=18502 fps=3697 q=-1.0 size=  338432kB time=00:05:08.40 bitrate=8989.6kbits/s speed=61.6x    frame=20150 fps=3660 q=-1.0 size=  372224kB time=00:05:35.82 bitrate=9079.8kbits/s speed=  61x    frame=21779 fps=3627 q=-1.0 size=  406528kB time=00:06:02.98 bitrate=9174.6kbits/s speed=60.4x    frame=23403 fps=3597 q=-1.0 size=  440064kB time=00:06:30.03 bitrate=9242.7kbits/s speed=59.9x    frame=25128 fps=3586 q=-1.0 size=  475904kB time=00:06:58.75 bitrate=9309.9kbits/s speed=59.8x    frame=26775 fps=3567 q=-1.0 size=  510208kB time=00:07:26.20 bitrate=9367.1kbits/s speed=59.4x    frame=28412 fps=3548 q=-1.0 size=  544256kB time=00:07:53.48 bitrate=9416.5kbits/s speed=59.1x    frame=29897 fps=3514 q=-1.0 size=  574976kB time=00:08:18.21 bitrate=9454.2kbits/s speed=58.6x    frame=31421 fps=3488 q=-1.0 size=  606720kB time=00:08:43.60 bitrate=9492.3kbits/s speed=58.1x    frame=33030 fps=3473 q=-1.0 size=  640256kB time=00:09:10.41 bitrate=9529.2kbits/s speed=57.9x    frame=34604 fps=3457 q=-1.0 size=  673024kB time=00:09:36.61 bitrate=9561.6kbits/s speed=57.6x    frame=36163 fps=3441 q=-1.0 size=  705280kB time=00:10:02.55 bitrate=9588.7kbits/s speed=57.3x    frame=37961 fps=3448 q=-1.0 size=  740864kB time=00:10:32.51 bitrate=9595.3kbits/s speed=57.4x    frame=39668 fps=3446 q=-1.0 size=  775168kB time=00:11:00.98 bitrate=9607.1kbits/s speed=57.4x    frame=41295 fps=3438 q=-1.0 size=  808960kB time=00:11:28.09 bitrate=9630.9kbits/s speed=57.3x    frame=43035 fps=3440 q=-1.0 size=  845056kB time=00:11:57.06 bitrate=9654.2kbits/s speed=57.3x    frame=44699 fps=3435 q=-1.0 size=  879872kB time=00:12:24.79 bitrate=9677.8kbits/s speed=57.2x    frame=46335 fps=3429 q=-1.0 size=  913920kB time=00:12:52.02 bitrate=9697.7kbits/s speed=57.1x    frame=48059 fps=3430 q=-1.0 size=  949504kB time=00:13:20.75 bitrate=9713.7kbits/s speed=57.1x    frame=49681 fps=3423 q=-1.0 size=  983296kB time=00:13:47.75 bitrate=9731.3kbits/s speed=  57x    frame=51457 fps=3428 q=-1.0 size= 1020416kB time=00:14:17.37 bitrate=9749.8kbits/s speed=57.1x    frame=53140 fps=3425 q=-1.0 size= 1055488kB time=00:14:45.40 bitrate=9765.7kbits/s speed=57.1x    frame=54689 fps=3415 q=-1.0 size= 1087488kB time=00:15:11.20 bitrate=9776.8kbits/s speed=56.9x    frame=56328 fps=3411 q=-1.0 size= 1121792kB time=00:15:38.49 bitrate=9792.0kbits/s speed=56.8x    frame=58020 fps=3410 q=-1.0 size= 1156864kB time=00:16:06.67 bitrate=9803.8kbits/s speed=56.8x    frame=59744 fps=3411 q=-1.0 size= 1192704kB time=00:16:35.38 bitrate=9816.0kbits/s speed=56.8x    frame=61361 fps=3406 q=-1.0 size= 1226240kB time=00:17:02.32 bitrate=9826.0kbits/s speed=56.7x    frame=62921 fps=3398 q=-1.0 size= 1258752kB time=00:17:28.29 bitrate=9836.6kbits/s speed=56.6x    frame=64490 fps=3391 q=-1.0 size= 1291264kB time=00:17:54.45 bitrate=9845.1kbits/s speed=56.5x    frame=66147 fps=3389 q=-1.0 size= 1325824kB time=00:18:22.03 bitrate=9855.5kbits/s speed=56.5x    frame=67720 fps=3383 q=-1.0 size= 1358336kB time=00:18:48.23 bitrate=9862.8kbits/s speed=56.4x    frame=69306 fps=3378 q=-1.0 size= 1391360kB time=00:19:14.67 bitrate=9871.2kbits/s speed=56.3x    frame=71012 fps=3379 q=-1.0 size= 1426944kB time=00:19:43.10 bitrate=9880.3kbits/s speed=56.3x    frame=72800 fps=3383 q=-1.0 size= 1462784kB time=00:20:12.91 bitrate=9879.6kbits/s speed=56.4x    frame=74502 fps=3384 q=-1.0 size= 1498112kB time=00:20:41.28 bitrate=9887.0kbits/s speed=56.4x    frame=76183 fps=3383 q=-1.0 size= 1533184kB time=00:21:09.26 bitrate=9895.4kbits/s speed=56.4x    frame=77734 fps=3377 q=-1.0 size= 1565440kB time=00:21:35.11 bitrate=9901.9kbits/s speed=56.3x    frame=79323 fps=3373 q=-1.0 size= 1598720kB time=00:22:01.55 bitrate=9910.1kbits/s speed=56.2x    frame=80996 fps=3372 q=-1.0 size= 1633280kB time=00:22:29.44 bitrate=9915.1kbits/s speed=56.2x    frame=82637 fps=3370 q=-1.0 size= 1667328kB time=00:22:56.76 bitrate=9920.9kbits/s speed=56.1x    frame=84349 fps=3371 q=-1.0 size= 1703168kB time=00:23:25.30 bitrate=9928.4kbits/s speed=56.2x    frame=85960 fps=3368 q=-1.0 size= 1736448kB time=00:23:52.13 bitrate=9932.7kbits/s speed=56.1x    frame=87615 fps=3367 q=-1.0 size= 1771008kB time=00:24:19.69 bitrate=9939.2kbits/s speed=56.1x    frame=89312 fps=3367 q=-1.0 size= 1806592kB time=00:24:47.97 bitrate=9946.1kbits/s speed=56.1x    frame=90943 fps=3365 q=-1.0 size= 1840128kB time=00:25:15.10 bitrate=9949.3kbits/s speed=56.1x    frame=92572 fps=3363 q=-1.0 size= 1874176kB time=00:25:42.27 bitrate=9954.9kbits/s speed=  56x    frame=94313 fps=3365 q=-1.0 size= 1910528kB time=00:26:11.25 bitrate=9960.8kbits/s speed=56.1x    frame=96013 fps=3366 q=-1.0 size= 1945344kB time=00:26:39.59 bitrate=9962.7kbits/s speed=56.1x    frame=97701 fps=3366 q=-1.0 size= 1980672kB time=00:27:07.72 bitrate=9968.3kbits/s speed=56.1x    frame=99343 fps=3364 q=-1.0 size= 2014720kB time=00:27:35.06 bitrate=9972.2kbits/s speed=56.1x    frame=100904 fps=3360 q=-1.0 size= 2047232kB time=00:28:01.03 bitrate=9976.5kbits/s speed=  56x    frame=102587 fps=3360 q=-1.0 size= 2082304kB time=00:28:29.08 bitrate=9980.9kbits/s speed=  56x    frame=104339 fps=3362 q=-1.0 size= 2117632kB time=00:28:58.29 bitrate=9979.7kbits/s speed=  56x    frame=105983 fps=3361 q=-1.0 size= 2151680kB time=00:29:25.64 bitrate=9983.1kbits/s speed=  56x    frame=107433 fps=3354 q=-1.0 size= 2181632kB time=00:29:49.81 bitrate=9985.3kbits/s speed=55.9x    frame=109084 fps=3353 q=-1.0 size= 2216192kB time=00:30:17.32 bitrate=9990.0kbits/s speed=55.9x    frame=110812 fps=3354 q=-1.0 size= 2252288kB time=00:30:46.10 bitrate=9994.4kbits/s speed=55.9x    frame=112430 fps=3352 q=-1.0 size= 2285824kB time=00:31:13.06 bitrate=9997.2kbits/s speed=55.9x    frame=114213 fps=3355 q=-1.0 size= 2322944kB time=00:31:42.77 bitrate=10001.0kbits/s speed=55.9x    frame=115940 fps=3357 q=-1.0 size= 2358784kB time=00:32:11.51 bitrate=10004.1kbits/s speed=55.9x    frame=117532 fps=3354 q=-1.0 size= 2391808kB time=00:32:38.05 bitrate=10006.7kbits/s speed=55.9x    frame=119190 fps=3354 q=-1.0 size= 2426368kB time=00:33:05.65 bitrate=10010.2kbits/s speed=55.9x    frame=120897 fps=3354 q=-1.0 size= 2461952kB time=00:33:34.12 bitrate=10013.5kbits/s speed=55.9x    frame=122635 fps=3356 q=-1.0 size= 2496768kB time=00:34:03.05 bitrate=10011.2kbits/s speed=55.9x    frame=124169 fps=3352 q=-1.0 size= 2528768kB time=00:34:28.59 bitrate=10014.4kbits/s speed=55.8x    frame=125816 fps=3351 q=-1.0 size= 2563072kB time=00:34:56.05 bitrate=10017.3kbits/s speed=55.8x    frame=127506 fps=3352 q=-1.0 size= 2598144kB time=00:35:24.16 bitrate=10019.9kbits/s speed=55.8x    frame=129130 fps=3350 q=-1.0 size= 2631936kB time=00:35:51.24 bitrate=10022.5kbits/s speed=55.8x    frame=130743 fps=3349 q=-1.0 size= 2665472kB time=00:36:18.10 bitrate=10025.0kbits/s speed=55.8x    frame=132312 fps=3346 q=-1.0 size= 2698240kB time=00:36:44.24 bitrate=10027.9kbits/s speed=55.7x    frame=133993 fps=3346 q=-1.0 size= 2733056kB time=00:37:12.22 bitrate=10030.0kbits/s speed=55.7x    frame=135725 fps=3347 q=-1.0 size= 2769152kB time=00:37:41.07 bitrate=10032.8kbits/s speed=55.8x    frame=137485 fps=3350 q=-1.0 size= 2805760kB time=00:38:10.36 bitrate=10035.4kbits/s speed=55.8x    frame=139313 fps=3353 q=-1.0 size= 2843904kB time=00:38:40.81 bitrate=10038.4kbits/s speed=55.9x    frame=141075 fps=3355 q=-1.0 size= 2880768kB time=00:39:10.20 bitrate=10041.3kbits/s speed=55.9x    frame=142678 fps=3353 q=-1.0 size= 2913536kB time=00:39:36.89 bitrate=10041.6kbits/s speed=55.9x    frame=144439 fps=3355 q=-1.0 size= 2950400kB time=00:40:06.25 bitrate=10044.5kbits/s speed=55.9x    frame=146106 fps=3355 q=-1.0 size= 2984960kB time=00:40:33.99 bitrate=10046.4kbits/s speed=55.9x    frame=147713 fps=3353 q=-1.0 size= 3018496kB time=00:41:00.79 bitrate=10048.6kbits/s speed=55.9x    frame=149362 fps=3353 q=-1.0 size= 3052800kB time=00:41:28.26 bitrate=10050.6kbits/s speed=55.9x    frame=151063 fps=3353 q=-1.0 size= 3088384kB time=00:41:56.57 bitrate=10053.4kbits/s speed=55.9x    frame=152758 fps=3354 q=-1.0 size= 3123200kB time=00:42:24.83 bitrate=10053.8kbits/s speed=55.9x    frame=154573 fps=3357 q=-1.0 size= 3161344kB time=00:42:55.02 bitrate=10057.3kbits/s speed=55.9x    frame=156316 fps=3358 q=-1.0 size= 3197440kB time=00:43:24.08 bitrate=10058.6kbits/s speed=55.9x    frame=158033 fps=3359 q=-1.0 size= 3233024kB time=00:43:52.65 bitrate=10060.1kbits/s speed=  56x    frame=159642 fps=3357 q=-1.0 size= 3266560kB time=00:44:19.45 bitrate=10062.1kbits/s speed=55.9x    frame=161220 fps=3355 q=-1.0 size= 3299328kB time=00:44:45.74 bitrate=10063.5kbits/s speed=55.9x    frame=162798 fps=3353 q=-1.0 size= 3332096kB time=00:45:12.03 bitrate=10065.0kbits/s speed=55.9x    frame=164384 fps=3351 q=-1.0 size= 3365120kB time=00:45:38.43 bitrate=10066.7kbits/s speed=55.8x    frame=166875 fps=3367 q=-1.0 size= 3396352kB time=00:46:19.93 bitrate=10008.5kbits/s speed=56.1x    frame=170647 fps=3409 q=-1.0 size= 3429888kB time=00:47:22.78 bitrate=9883.8kbits/s speed=56.8x    frame=173368 fps=3429 q=-1.0 size= 3463680kB time=00:48:08.13 bitrate=9824.5kbits/s speed=57.1x    frame=176387 fps=3455 q=-1.0 size= 3499520kB time=00:48:58.38 bitrate=9756.4kbits/s speed=57.6x    frame=180024 fps=3492 q=-1.0 size= 3534848kB time=00:49:58.99 bitrate=9655.7kbits/s speed=58.2x    frame=181914 fps=3495 q=-1.0 size= 3568640kB time=00:50:30.47 bitrate=9646.8kbits/s speed=58.2x    frame=183982 fps=3501 q=-1.0 size= 3602688kB time=00:51:04.94 bitrate=9629.3kbits/s speed=58.3x    frame=185830 fps=3502 q=-1.0 size= 3637760kB time=00:51:35.73 bitrate=9626.3kbits/s speed=58.3x    frame=188276 fps=3515 q=-1.0 size= 3669760kB time=00:52:16.46 bitrate=9584.9kbits/s speed=58.6x    frame=190001 fps=3515 q=-1.0 size= 3703296kB time=00:52:45.17 bitrate=9584.8kbits/s speed=58.6x    frame=192032 fps=3520 q=-1.0 size= 3737856kB time=00:53:19.03 bitrate=9571.8kbits/s speed=58.6x    frame=194395 fps=3531 q=-1.0 size= 3769600kB time=00:53:58.39 bitrate=9535.8kbits/s speed=58.8x    frame=196814 fps=3542 q=-1.0 size= 3804416kB time=00:54:38.68 bitrate=9505.6kbits/s speed=  59x    frame=199639 fps=3561 q=-1.0 size= 3837184kB time=00:55:25.73 bitrate=9451.8kbits/s speed=59.3x    frame=202081 fps=3573 q=-1.0 size= 3866880kB time=00:56:06.44 bitrate=9409.8kbits/s speed=59.5x    frame=205423 fps=3600 q=-1.0 size= 3900416kB time=00:57:02.10 bitrate=9337.0kbits/s speed=  60x    frame=207640 fps=3607 q=-1.0 size= 3931136kB time=00:57:39.00 bitrate=9310.1kbits/s speed=60.1x    frame=209825 fps=3614 q=-1.0 size= 3962112kB time=00:58:15.40 bitrate=9285.8kbits/s speed=60.2x    frame=212401 fps=3627 q=-1.0 size= 3996672kB time=00:58:58.30 bitrate=9253.2kbits/s speed=60.4x    frame=215235 fps=3644 q=-1.0 size= 4027904kB time=00:59:45.49 bitrate=9202.8kbits/s speed=60.7x    frame=216852 fps=3640 q=-1.0 size= 4060416kB time=01:00:12.47 bitrate=9207.8kbits/s speed=60.6x    frame=219156 fps=3648 q=-1.0 size= 4092928kB time=01:00:50.84 bitrate=9184.0kbits/s speed=60.8x    frame=220980 fps=3648 q=-1.0 size= 4124672kB time=01:01:21.24 bitrate=9178.8kbits/s speed=60.8x    frame=223017 fps=3651 q=-1.0 size= 4159232kB time=01:01:55.16 bitrate=9171.2kbits/s speed=60.8x    frame=225037 fps=3655 q=-1.0 size= 4193024kB time=01:02:28.80 bitrate=9162.7kbits/s speed=60.9x    frame=226543 fps=3649 q=-1.0 size= 4224000kB time=01:02:53.90 bitrate=9169.0kbits/s speed=60.8x    frame=228303 fps=3648 q=-1.0 size= 4257280kB time=01:03:23.23 bitrate=9170.0kbits/s speed=60.8x    frame=230353 fps=3652 q=-1.0 size= 4293120kB time=01:03:57.36 bitrate=9164.9kbits/s speed=60.8x    frame=232096 fps=3650 q=-1.0 size= 4324608kB time=01:04:26.40 bitrate=9162.8kbits/s speed=60.8x    frame=234234 fps=3655 q=-1.0 size= 4359680kB time=01:05:02.02 bitrate=9152.8kbits/s speed=60.9x    frame=236154 fps=3657 q=-1.0 size= 4392192kB time=01:05:34.00 bitrate=9146.1kbits/s speed=60.9x    frame=237710 fps=3652 q=-1.0 size= 4424448kB time=01:05:59.91 bitrate=9153.0kbits/s speed=60.8x    frame=240655 fps=3669 q=-1.0 size= 4458240kB time=01:06:49.01 bitrate=9110.0kbits/s speed=61.1x    frame=242555 fps=3670 q=-1.0 size= 4491008kB time=01:07:20.64 bitrate=9105.1kbits/s speed=61.1x    frame=245102 fps=3681 q=-1.0 size= 4524032kB time=01:08:03.10 bitrate=9076.6kbits/s speed=61.3x    frame=248165 fps=3699 q=-1.0 size= 4559104kB time=01:08:54.12 bitrate=9034.1kbits/s speed=61.6x    frame=250487 fps=3706 q=-1.0 size= 4595200kB time=01:09:32.76 bitrate=9021.3kbits/s speed=61.7x    frame=253055 fps=3717 q=-1.0 size= 4630784kB time=01:10:15.54 bitrate=8998.9kbits/s speed=61.9x    frame=255025 fps=3718 q=-1.0 size= 4664832kB time=01:10:48.35 bitrate=8995.1kbits/s speed=61.9x    frame=257603 fps=3728 q=-1.0 size= 4697856kB time=01:11:31.30 bitrate=8968.1kbits/s speed=62.1x    frame=259679 fps=3732 q=-1.0 size= 4731904kB time=01:12:05.92 bitrate=8960.8kbits/s speed=62.2x    frame=262095 fps=3739 q=-1.0 size= 4765696kB time=01:12:46.19 bitrate=8941.6kbits/s speed=62.3x    frame=264242 fps=3743 q=-1.0 size= 4802304kB time=01:13:21.95 bitrate=8937.0kbits/s speed=62.4x    frame=266242 fps=3745 q=-1.0 size= 4836352kB time=01:13:55.27 bitrate=8932.8kbits/s speed=62.4x    frame=268180 fps=3746 q=-1.0 size= 4866816kB time=01:14:27.57 bitrate=8924.1kbits/s speed=62.4x    frame=270107 fps=3746 q=-1.0 size= 4901120kB time=01:14:59.66 bitrate=8922.9kbits/s speed=62.4x    frame=274008 fps=3774 q=-1.0 size= 4933376kB time=01:16:04.65 bitrate=8853.7kbits/s speed=62.9x    frame=275703 fps=3772 q=-1.0 size= 4967936kB time=01:16:32.88 bitrate=8861.0kbits/s speed=62.8x    frame=277294 fps=3768 q=-1.0 size= 4999424kB time=01:16:59.37 bitrate=8866.0kbits/s speed=62.8x    frame=279182 fps=3768 q=-1.0 size= 5035264kB time=01:17:30.83 bitrate=8869.1kbits/s speed=62.8x    frame=280939 fps=3766 q=-1.0 size= 5067776kB time=01:18:00.10 bitrate=8870.6kbits/s speed=62.7x    frame=282606 fps=3763 q=-1.0 size= 5100800kB time=01:18:27.85 bitrate=8875.8kbits/s speed=62.7x    frame=284508 fps=3763 q=-1.0 size= 5135872kB time=01:18:59.53 bitrate=8877.0kbits/s speed=62.7x    frame=286318 fps=3762 q=-1.0 size= 5170176kB time=01:19:29.68 bitrate=8879.9kbits/s speed=62.7x    frame=288198 fps=3762 q=-1.0 size= 5206272kB time=01:20:01.01 bitrate=8883.5kbits/s speed=62.7x    frame=289929 fps=3760 q=-1.0 size= 5240576kB time=01:20:29.84 bitrate=8888.7kbits/s speed=62.6x    frame=292297 fps=3767 q=-1.0 size= 5272320kB time=01:21:09.30 bitrate=8870.0kbits/s speed=62.7x    frame=294774 fps=3774 q=-1.0 size= 5307136kB time=01:21:50.55 bitrate=8853.6kbits/s speed=62.9x    frame=297423 fps=3784 q=-1.0 size= 5341184kB time=01:22:34.68 bitrate=8831.0kbits/s speed=  63x    frame=299588 fps=3787 q=-1.0 size= 5377280kB time=01:23:10.73 bitrate=8826.5kbits/s speed=63.1x    frame=301448 fps=3787 q=-1.0 size= 5412352kB time=01:23:41.70 bitrate=8829.3kbits/s speed=63.1x    frame=303192 fps=3785 q=-1.0 size= 5446912kB time=01:24:10.79 bitrate=8834.5kbits/s speed=63.1x    frame=305082 fps=3785 q=-1.0 size= 5480960kB time=01:24:42.27 bitrate=8834.6kbits/s speed=63.1x    frame=307032 fps=3786 q=-1.0 size= 5517056kB time=01:25:14.77 bitrate=8836.3kbits/s speed=63.1x    frame=308831 fps=3784 q=-1.0 size= 5549312kB time=01:25:44.74 bitrate=8836.2kbits/s speed=  63x    frame=310571 fps=3783 q=-1.0 size= 5585152kB time=01:26:13.73 bitrate=8843.4kbits/s speed=  63x    frame=313024 fps=3789 q=-1.0 size= 5621248kB time=01:26:54.60 bitrate=8830.8kbits/s speed=63.1x    frame=314982 fps=3790 q=-1.0 size= 5652992kB time=01:27:27.22 bitrate=8825.5kbits/s speed=63.1x    frame=317820 fps=3801 q=-1.0 size= 5687808kB time=01:28:14.49 bitrate=8800.6kbits/s speed=63.3x    frame=320536 fps=3811 q=-1.0 size= 5721344kB time=01:28:59.73 bitrate=8777.4kbits/s speed=63.5x    frame=322253 fps=3809 q=-1.0 size= 5755904kB time=01:29:28.30 bitrate=8783.5kbits/s speed=63.4x    frame=324059 fps=3808 q=-1.0 size= 5792000kB time=01:29:58.42 bitrate=8789.3kbits/s speed=63.4x    frame=325667 fps=3804 q=-1.0 size= 5825024kB time=01:30:25.18 bitrate=8795.7kbits/s speed=63.4x    frame=327442 fps=3802 q=-1.0 size= 5860096kB time=01:30:54.76 bitrate=8800.7kbits/s speed=63.3x    frame=329249 fps=3801 q=-1.0 size= 5895936kB time=01:31:24.89 bitrate=8805.9kbits/s speed=63.3x    frame=331346 fps=3803 q=-1.0 size= 5931776kB time=01:31:59.81 bitrate=8803.4kbits/s speed=63.4x    frame=333227 fps=3803 q=-1.0 size= 5968384kB time=01:32:31.16 bitrate=8807.7kbits/s speed=63.4x    frame=335164 fps=3804 q=-1.0 size= 6006016kB time=01:33:03.42 bitrate=8812.0kbits/s speed=63.4x    frame=336783 fps=3800 q=-1.0 size= 6038016kB time=01:33:30.39 bitrate=8816.4kbits/s speed=63.3x    frame=338564 fps=3799 q=-1.0 size= 6073344kB time=01:34:00.06 bitrate=8821.3kbits/s speed=63.3x    frame=340191 fps=3796 q=-1.0 size= 6106112kB time=01:34:27.14 bitrate=8826.5kbits/s speed=63.2x    frame=341976 fps=3795 q=-1.0 size= 6141440kB time=01:34:56.92 bitrate=8831.2kbits/s speed=63.2x    frame=344028 fps=3796 q=-1.0 size= 6176768kB time=01:35:31.11 bitrate=8829.0kbits/s speed=63.2x    frame=345837 fps=3795 q=-1.0 size= 6212352kB time=01:36:01.22 bitrate=8833.5kbits/s speed=63.2x    frame=347768 fps=3796 q=-1.0 size= 6249728kB time=01:36:33.41 bitrate=8837.2kbits/s speed=63.2x    frame=349380 fps=3793 q=-1.0 size= 6282240kB time=01:37:00.25 bitrate=8842.2kbits/s speed=63.2x    frame=351252 fps=3792 q=-1.0 size= 6316032kB time=01:37:31.44 bitrate=8842.4kbits/s speed=63.2x    frame=353203 fps=3793 q=-1.0 size= 6352640kB time=01:38:03.94 bitrate=8844.5kbits/s speed=63.2x    frame=354811 fps=3790 q=-1.0 size= 6385152kB time=01:38:30.74 bitrate=8849.5kbits/s speed=63.1x    frame=358043 fps=3804 q=-1.0 size= 6419200kB time=01:39:24.57 bitrate=8816.4kbits/s speed=63.4x    frame=361842 fps=3824 q=-1.0 size= 6453760kB time=01:40:27.83 bitrate=8770.9kbits/s speed=63.7x    frame=363700 fps=3823 q=-1.0 size= 6485248kB time=01:40:58.81 bitrate=8768.6kbits/s speed=63.7x    frame=367777 fps=3846 q=-1.0 size= 6516736kB time=01:42:06.71 bitrate=8713.5kbits/s speed=64.1x    frame=373788 fps=3889 q=-1.0 size= 6550528kB time=01:43:46.83 bitrate=8617.8kbits/s speed=64.8x    frame=376815 fps=3900 q=-1.0 size= 6583808kB time=01:44:37.22 bitrate=8592.1kbits/s speed=  65x    frame=379871 fps=3911 q=-1.0 size= 6616320kB time=01:45:28.14 bitrate=8565.1kbits/s speed=65.2x    frame=381645 fps=3909 q=-1.0 size= 6649344kB time=01:45:57.67 bitrate=8567.8kbits/s speed=65.1x    frame=383652 fps=3910 q=-1.0 size= 6683648kB time=01:46:31.10 bitrate=8567.0kbits/s speed=65.1x    frame=386298 fps=3917 q=-1.0 size= 6716672kB time=01:47:15.19 bitrate=8550.3kbits/s speed=65.2x    frame=389811 fps=3933 q=-1.0 size= 6745856kB time=01:48:13.75 bitrate=8510.0kbits/s speed=65.5x    frame=392750 fps=3942 q=-1.0 size= 6776832kB time=01:49:02.73 bitrate=8485.1kbits/s speed=65.7x    frame=395044 fps=3945 q=-1.0 size= 6808576kB time=01:49:40.94 bitrate=8475.4kbits/s speed=65.7x    frame=397501 fps=3950 q=-1.0 size= 6839040kB time=01:50:21.87 bitrate=8460.7kbits/s speed=65.8x    frame=399131 fps=3947 q=-1.0 size= 6872576kB time=01:50:49.00 bitrate=8467.5kbits/s speed=65.7x    frame=401393 fps=3950 q=-1.0 size= 6906368kB time=01:51:26.68 bitrate=8461.1kbits/s speed=65.8x    frame=403270 fps=3949 q=-1.0 size= 6939392kB time=01:51:58.00 bitrate=8462.0kbits/s speed=65.8x    frame=404995 fps=3946 q=-1.0 size= 6974720kB time=01:52:26.68 bitrate=8468.9kbits/s speed=65.7x    frame=407373 fps=3950 q=-1.0 size= 7008768kB time=01:53:06.30 bitrate=8460.5kbits/s speed=65.8x    frame=409160 fps=3948 q=-1.0 size= 7041792kB time=01:53:36.09 bitrate=8463.3kbits/s speed=65.8x    frame=412092 fps=3957 q=-1.0 size= 7074304kB time=01:54:24.95 bitrate=8441.8kbits/s speed=65.9x    frame=413787 fps=3955 q=-1.0 size= 7108096kB time=01:54:53.17 bitrate=8447.4kbits/s speed=65.9x    frame=415498 fps=3952 q=-1.0 size= 7141120kB time=01:55:21.71 bitrate=8451.7kbits/s speed=65.8x    frame=417189 fps=3950 q=-1.0 size= 7174144kB time=01:55:49.87 bitrate=8456.4kbits/s speed=65.8x    frame=418891 fps=3947 q=-1.0 size= 7204864kB time=01:56:18.23 bitrate=8458.1kbits/s speed=65.8x    frame=420914 fps=3947 q=-1.0 size= 7240192kB time=01:56:51.92 bitrate=8458.7kbits/s speed=65.8x    frame=424369 fps=3961 q=-1.0 size= 7275008kB time=01:57:49.44 bitrate=8430.2kbits/s speed=  66x    frame=426679 fps=3964 q=-1.0 size= 7309056kB time=01:58:27.95 bitrate=8423.8kbits/s speed=  66x    frame=428566 fps=3963 q=-1.0 size= 7345152kB time=01:58:59.37 bitrate=8428.1kbits/s speed=  66x    frame=430399 fps=3962 q=-1.0 size= 7381760kB time=01:59:29.89 bitrate=8434.1kbits/s speed=  66x    frame=432148 fps=3960 q=-1.0 size= 7416064kB time=01:59:59.06 bitrate=8438.9kbits/s speed=  66x    frame=433988 fps=3958 q=-1.0 size= 7452416kB time=02:00:29.71 bitrate=8444.3kbits/s speed=65.9x    frame=435794 fps=3957 q=-1.0 size= 7488000kB time=02:00:59.81 bitrate=8449.5kbits/s speed=65.9x    frame=437546 fps=3955 q=-1.0 size= 7523584kB time=02:01:29.00 bitrate=8455.6kbits/s speed=65.9x    frame=439915 fps=3958 q=-1.0 size= 7556096kB time=02:02:08.47 bitrate=8446.4kbits/s speed=65.9x    frame=442202 fps=3961 q=-1.0 size= 7587328kB time=02:02:46.52 bitrate=8437.5kbits/s speed=  66x    frame=443863 fps=3958 q=-1.0 size= 7619840kB time=02:03:14.18 bitrate=8442.0kbits/s speed=65.9x    frame=446135 fps=3961 q=-1.0 size= 7653888kB time=02:03:52.02 bitrate=8436.6kbits/s speed=  66x    frame=448260 fps=3962 q=-1.0 size= 7686400kB time=02:04:27.45 bitrate=8432.2kbits/s speed=  66x    frame=450771 fps=3967 q=-1.0 size= 7718912kB time=02:05:09.27 bitrate=8420.7kbits/s speed=66.1x    frame=452672 fps=3966 q=-1.0 size= 7755008kB time=02:05:40.94 bitrate=8424.5kbits/s speed=66.1x    frame=454447 fps=3964 q=-1.0 size= 7788544kB time=02:06:10.52 bitrate=8427.9kbits/s speed=  66x    frame=456476 fps=3964 q=-1.0 size= 7824640kB time=02:06:44.30 bitrate=8429.4kbits/s speed=  66x    frame=458304 fps=3963 q=-1.0 size= 7859200kB time=02:07:14.76 bitrate=8432.8kbits/s speed=  66x    frame=460869 fps=3968 q=-1.0 size= 7890688kB time=02:07:57.49 bitrate=8419.5kbits/s speed=66.1x    frame=462979 fps=3969 q=-1.0 size= 7920128kB time=02:08:32.63 bitrate=8412.4kbits/s speed=66.1x    frame=465051 fps=3970 q=-1.0 size= 7953408kB time=02:09:07.17 bitrate=8410.1kbits/s speed=66.1x    frame=467949 fps=3978 q=-1.0 size= 7986688kB time=02:09:55.42 bitrate=8393.0kbits/s speed=66.3x    frame=470103 fps=3979 q=-1.0 size= 8020224kB time=02:10:31.30 bitrate=8389.6kbits/s speed=66.3x    frame=472329 fps=3981 q=-1.0 size= 8053248kB time=02:11:08.39 bitrate=8384.5kbits/s speed=66.3x    frame=475107 fps=3988 q=-1.0 size= 8087552kB time=02:11:54.69 bitrate=8370.9kbits/s speed=66.4x    frame=477306 fps=3989 q=-1.0 size= 8123904kB time=02:12:31.33 bitrate=8369.8kbits/s speed=66.5x    frame=479124 fps=3988 q=-1.0 size= 8157440kB time=02:13:01.62 bitrate=8372.5kbits/s speed=66.4x    frame=481181 fps=3988 q=-1.0 size= 8190976kB time=02:13:35.90 bitrate=8370.9kbits/s speed=66.4x    frame=483150 fps=3988 q=-1.0 size= 8228352kB time=02:14:08.69 bitrate=8374.9kbits/s speed=66.4x    frame=484856 fps=3986 q=-1.0 size= 8261632kB time=02:14:37.12 bitrate=8379.1kbits/s speed=66.4x    frame=486692 fps=3984 q=-1.0 size= 8297472kB time=02:15:07.71 bitrate=8383.7kbits/s speed=66.4x    frame=488403 fps=3982 q=-1.0 size= 8330752kB time=02:15:36.22 bitrate=8387.9kbits/s speed=66.3x    frame=490126 fps=3980 q=-1.0 size= 8364544kB time=02:16:04.93 bitrate=8392.3kbits/s speed=66.3x    frame=492063 fps=3979 q=-1.0 size= 8400384kB time=02:16:37.20 bitrate=8395.0kbits/s speed=66.3x    frame=493798 fps=3977 q=-1.0 size= 8434688kB time=02:17:06.11 bitrate=8399.7kbits/s speed=66.3x    frame=495626 fps=3976 q=-1.0 size= 8468992kB time=02:17:36.58 bitrate=8402.7kbits/s speed=66.2x    frame=497559 fps=3976 q=-1.0 size= 8504832kB time=02:18:08.78 bitrate=8405.5kbits/s speed=66.2x    frame=499293 fps=3974 q=-1.0 size= 8537600kB time=02:18:37.68 bitrate=8408.6kbits/s speed=66.2x    frame=501180 fps=3973 q=-1.0 size= 8573440kB time=02:19:09.11 bitrate=8412.1kbits/s speed=66.2x    frame=503173 fps=3973 q=-1.0 size= 8608768kB time=02:19:42.31 bitrate=8413.3kbits/s speed=66.2x    frame=505353 fps=3974 q=-1.0 size= 8643072kB time=02:20:18.62 bitrate=8410.4kbits/s speed=66.2x    frame=507538 fps=3976 q=-1.0 size= 8677888kB time=02:20:55.03 bitrate=8407.9kbits/s speed=66.2x    frame=509626 fps=3977 q=-1.0 size= 8712192kB time=02:21:29.81 bitrate=8406.6kbits/s speed=66.2x    frame=511715 fps=3977 q=-1.0 size= 8746496kB time=02:22:04.60 bitrate=8405.2kbits/s speed=66.3x    frame=513896 fps=3979 q=-1.0 size= 8783616kB time=02:22:40.93 bitrate=8405.1kbits/s speed=66.3x    frame=516096 fps=3980 q=-1.0 size= 8819200kB time=02:23:17.61 bitrate=8403.1kbits/s speed=66.3x    frame=518356 fps=3983 q=-1.0 size= 8856832kB time=02:23:55.28 bitrate=8402.2kbits/s speed=66.3x    frame=520504 fps=3984 q=-1.0 size= 8893440kB time=02:24:31.05 bitrate=8402.1kbits/s speed=66.4x    frame=523471 fps=3991 q=-1.0 size= 8926720kB time=02:25:20.46 bitrate=8385.8kbits/s speed=66.5x    frame=525509 fps=3991 q=-1.0 size= 8959232kB time=02:25:54.41 bitrate=8383.7kbits/s speed=66.5x    frame=527735 fps=3993 q=-1.0 size= 8995584kB time=02:26:31.49 bitrate=8382.2kbits/s speed=66.5x    frame=529754 fps=3993 q=-1.0 size= 9029376kB time=02:27:05.13 bitrate=8381.6kbits/s speed=66.5x    frame=531851 fps=3994 q=-1.0 size= 9066240kB time=02:27:40.09 bitrate=8382.6kbits/s speed=66.5x    frame=534004 fps=3995 q=-1.0 size= 9102592kB time=02:28:15.96 bitrate=8382.3kbits/s speed=66.6x    frame=535919 fps=3995 q=-1.0 size= 9136128kB time=02:28:47.85 bitrate=8383.1kbits/s speed=66.5x    frame=537940 fps=3995 q=-1.0 size= 9172480kB time=02:29:21.52 bitrate=8384.8kbits/s speed=66.5x    frame=539863 fps=3994 q=-1.0 size= 9206016kB time=02:29:53.53 bitrate=8385.5kbits/s speed=66.5x    frame=541842 fps=3994 q=-1.0 size= 9238528kB time=02:30:26.53 bitrate=8384.4kbits/s speed=66.5x    frame=543661 fps=3993 q=-1.0 size= 9271808kB time=02:30:56.82 bitrate=8386.5kbits/s speed=66.5x    frame=545741 fps=3993 q=-1.0 size= 9307136kB time=02:31:31.49 bitrate=8386.3kbits/s speed=66.5x    frame=547574 fps=3992 q=-1.0 size= 9340672kB time=02:32:02.00 bitrate=8388.4kbits/s speed=66.5x    frame=549498 fps=3991 q=-1.0 size= 9373696kB time=02:32:34.06 bitrate=8388.5kbits/s speed=66.5x    frame=551433 fps=3991 q=-1.0 size= 9409536kB time=02:33:06.31 bitrate=8391.1kbits/s speed=66.5x    frame=553437 fps=3991 q=-1.0 size= 9444864kB time=02:33:39.71 bitrate=8392.0kbits/s speed=66.5x    frame=555265 fps=3990 q=-1.0 size= 9478400kB time=02:34:10.17 bitrate=8394.1kbits/s speed=66.5x    frame=557298 fps=3990 q=-1.0 size= 9514496kB time=02:34:44.03 bitrate=8395.4kbits/s speed=66.5x    frame=559155 fps=3989 q=-1.0 size= 9547008kB time=02:35:14.98 bitrate=8396.0kbits/s speed=66.5x    frame=561018 fps=3988 q=-1.0 size= 9580544kB time=02:35:46.02 bitrate=8397.6kbits/s speed=66.4x    frame=562848 fps=3987 q=-1.0 size= 9615360kB time=02:36:16.50 bitrate=8400.7kbits/s speed=66.4x    frame=564676 fps=3986 q=-1.0 size= 9647360kB time=02:36:46.96 bitrate=8401.3kbits/s speed=66.4x    frame=566443 fps=3984 q=-1.0 size= 9682176kB time=02:37:16.40 bitrate=8405.4kbits/s speed=66.4x    frame=568376 fps=3984 q=-1.0 size= 9718016kB time=02:37:48.60 bitrate=8407.8kbits/s speed=66.4x    frame=570295 fps=3983 q=-1.0 size= 9750272kB time=02:38:20.56 bitrate=8407.3kbits/s speed=66.4x    frame=572235 fps=3983 q=-1.0 size= 9785344kB time=02:38:52.90 bitrate=8408.9kbits/s speed=66.3x    frame=574126 fps=3982 q=-1.0 size= 9819648kB time=02:39:24.40 bitrate=8410.6kbits/s speed=66.3x    frame=576031 fps=3981 q=-1.0 size= 9854464kB time=02:39:56.14 bitrate=8412.5kbits/s speed=66.3x    frame=577934 fps=3981 q=-1.0 size= 9889792kB time=02:40:27.84 bitrate=8414.9kbits/s speed=66.3x    frame=579835 fps=3980 q=-1.0 size= 9924608kB time=02:40:59.51 bitrate=8416.8kbits/s speed=66.3x    frame=581880 fps=3980 q=-1.0 size= 9958656kB time=02:41:33.59 bitrate=8416.0kbits/s speed=66.3x    frame=583864 fps=3980 q=-1.0 size= 9993984kB time=02:42:06.65 bitrate=8417.2kbits/s speed=66.3x    frame=585738 fps=3980 q=-1.0 size=10028800kB time=02:42:37.87 bitrate=8419.4kbits/s speed=66.3x    frame=587753 fps=3980 q=-1.0 size=10064640kB time=02:43:11.43 bitrate=8420.6kbits/s speed=66.3x    frame=589727 fps=3980 q=-1.0 size=10100224kB time=02:43:44.29 bitrate=8422.1kbits/s speed=66.3x    frame=591530 fps=3978 q=-1.0 size=10133248kB time=02:44:14.35 bitrate=8423.8kbits/s speed=66.3x    frame=593504 fps=3978 q=-1.0 size=10169088kB time=02:44:47.22 bitrate=8425.5kbits/s speed=66.3x    frame=595465 fps=3978 q=-1.0 size=10206208kB time=02:45:19.87 bitrate=8428.5kbits/s speed=66.3x    frame=597385 fps=3978 q=-1.0 size=10242048kB time=02:45:51.88 bitrate=8430.8kbits/s speed=66.3x    frame=599443 fps=3978 q=-1.0 size=10278400kB time=02:46:26.15 bitrate=8431.7kbits/s speed=66.3x    frame=601361 fps=3978 q=-1.0 size=10310912kB time=02:46:58.08 bitrate=8431.5kbits/s speed=66.3x    frame=603168 fps=3976 q=-1.0 size=10344192kB time=02:47:28.20 bitrate=8433.3kbits/s speed=66.2x    frame=605060 fps=3976 q=-1.0 size=10378752kB time=02:47:59.69 bitrate=8435.0kbits/s speed=66.2x    frame=607523 fps=3979 q=-1.0 size=10414336kB time=02:48:40.75 bitrate=8429.6kbits/s speed=66.3x    frame=609963 fps=3982 q=-1.0 size=10448896kB time=02:49:21.40 bitrate=8423.8kbits/s speed=66.3x    frame=612102 fps=3983 q=-1.0 size=10483712kB time=02:49:57.04 bitrate=8422.3kbits/s speed=66.3x    frame=614913 fps=3988 q=-1.0 size=10516992kB time=02:50:43.87 bitrate=8410.4kbits/s speed=66.4x    frame=617513 fps=3992 q=-1.0 size=10554112kB time=02:51:27.15 bitrate=8404.6kbits/s speed=66.5x    frame=621547 fps=4005 q=-1.0 size=10588928kB time=02:52:34.38 bitrate=8377.6kbits/s speed=66.7x    frame=624099 fps=4009 q=-1.0 size=10620672kB time=02:53:16.89 bitrate=8368.3kbits/s speed=66.8x    frame=626776 fps=4013 q=-1.0 size=10657280kB time=02:54:01.51 bitrate=8361.3kbits/s speed=66.8x    frame=629390 fps=4017 q=-1.0 size=10692608kB time=02:54:45.04 bitrate=8354.2kbits/s speed=66.9x    frame=632040 fps=4021 q=-1.0 size=10729216kB time=02:55:29.18 bitrate=8347.6kbits/s speed=  67x    frame=634702 fps=4025 q=-1.0 size=10765312kB time=02:56:13.54 bitrate=8340.6kbits/s speed=  67x    frame=637220 fps=4028 q=-1.0 size=10801152kB time=02:56:55.47 bitrate=8335.3kbits/s speed=67.1x    frame=639075 fps=4027 q=-1.0 size=10833664kB time=02:57:26.37 bitrate=8336.1kbits/s speed=67.1x    frame=641531 fps=4030 q=-1.0 size=10866688kB time=02:58:07.28 bitrate=8329.5kbits/s speed=67.1x    frame=644447 fps=4035 q=-1.0 size=10902784kB time=02:58:55.85 bitrate=8319.4kbits/s speed=67.2x    frame=646931 fps=4038 q=-1.0 size=10937344kB time=02:59:37.27 bitrate=8313.7kbits/s speed=67.3x    frame=649160 fps=4040 q=-1.0 size=10973184kB time=03:00:14.38 bitrate=8312.3kbits/s speed=67.3x    frame=651457 fps=4041 q=-1.0 size=11009792kB time=03:00:52.67 bitrate=8310.6kbits/s speed=67.3x    frame=653586 fps=4042 q=-1.0 size=11042304kB time=03:01:28.12 bitrate=8308.0kbits/s speed=67.3x    frame=655831 fps=4043 q=-1.0 size=11077120kB time=03:02:05.56 bitrate=8305.6kbits/s speed=67.4x    frame=657990 fps=4044 q=-1.0 size=11111680kB time=03:02:41.53 bitrate=8304.2kbits/s speed=67.4x    frame=660120 fps=4045 q=-1.0 size=11144960kB time=03:03:17.02 bitrate=8302.2kbits/s speed=67.4x    frame=662404 fps=4046 q=-1.0 size=11181056kB time=03:03:55.06 bitrate=8300.4kbits/s speed=67.4x    frame=664246 fps=4045 q=-1.0 size=11215872kB time=03:04:25.73 bitrate=8303.1kbits/s speed=67.4x    frame=666344 fps=4046 q=-1.0 size=11250944kB time=03:05:00.67 bitrate=8302.9kbits/s speed=67.4x    frame=669796 fps=4054 q=-1.0 size=11285760kB time=03:05:58.19 bitrate=8285.7kbits/s speed=67.5x    frame=671606 fps=4053 q=-1.0 size=11318528kB time=03:06:28.33 bitrate=8287.3kbits/s speed=67.5x    frame=673801 fps=4054 q=-1.0 size=11350528kB time=03:07:04.91 bitrate=8283.7kbits/s speed=67.5x    frame=675891 fps=4054 q=-1.0 size=11387392kB time=03:07:39.74 bitrate=8284.9kbits/s speed=67.5x    frame=677492 fps=4052 q=-1.0 size=11420416kB time=03:08:06.42 bitrate=8289.3kbits/s speed=67.5x    frame=679355 fps=4051 q=-1.0 size=11454464kB time=03:08:37.44 bitrate=8291.2kbits/s speed=67.5x    frame=681235 fps=4050 q=-1.0 size=11488768kB time=03:09:08.76 bitrate=8293.1kbits/s speed=67.5x    frame=683213 fps=4050 q=-1.0 size=11523328kB time=03:09:41.70 bitrate=8293.9kbits/s speed=67.5x    frame=684997 fps=4048 q=-1.0 size=11556096kB time=03:10:11.42 bitrate=8295.9kbits/s speed=67.4x    frame=687290 fps=4050 q=-1.0 size=11583488kB time=03:10:49.59 bitrate=8287.8kbits/s speed=67.5x    frame=689339 fps=4050 q=-1.0 size=11616768kB time=03:11:23.75 bitrate=8286.9kbits/s speed=67.5x    frame=691032 fps=4048 q=-1.0 size=11651840kB time=03:11:51.96 bitrate=8291.5kbits/s speed=67.4x    frame=693693 fps=4052 q=-1.0 size=11684096kB time=03:12:36.28 bitrate=8282.6kbits/s speed=67.5x    frame=695273 fps=4049 q=-1.0 size=11716864kB time=03:13:02.60 bitrate=8287.0kbits/s speed=67.5x    frame=697283 fps=4049 q=-1.0 size=11752960kB time=03:13:36.07 bitrate=8288.5kbits/s speed=67.5x    frame=698888 fps=4047 q=-1.0 size=11785984kB time=03:14:02.80 bitrate=8292.7kbits/s speed=67.4x    frame=701435 fps=4050 q=-1.0 size=11820032kB time=03:14:45.26 bitrate=8286.5kbits/s speed=67.5x    frame=703357 fps=4049 q=-1.0 size=11855872kB time=03:15:17.30 bitrate=8288.9kbits/s speed=67.5x    frame=706054 fps=4053 q=-1.0 size=11888896kB time=03:16:02.20 bitrate=8280.2kbits/s speed=67.5x    frame=707913 fps=4052 q=-1.0 size=11925504kB time=03:16:33.19 bitrate=8283.9kbits/s speed=67.5x    frame=710038 fps=4052 q=-1.0 size=11961344kB time=03:17:08.60 bitrate=8283.9kbits/s speed=67.5x    frame=711779 fps=4051 q=-1.0 size=11994624kB time=03:17:37.58 bitrate=8286.7kbits/s speed=67.5x    frame=713637 fps=4050 q=-1.0 size=12029696kB time=03:18:08.55 bitrate=8289.3kbits/s speed=67.5x    frame=715342 fps=4048 q=-1.0 size=12062464kB time=03:18:36.97 bitrate=8292.0kbits/s speed=67.4x    frame=717212 fps=4047 q=-1.0 size=12097024kB time=03:19:08.12 bitrate=8294.1kbits/s speed=67.4x    frame=719610 fps=4049 q=-1.0 size=12133376kB time=03:19:48.06 bitrate=8291.3kbits/s speed=67.5x    frame=721323 fps=4047 q=-1.0 size=12166912kB time=03:20:16.62 bitrate=8294.5kbits/s speed=67.4x    frame=723145 fps=4046 q=-1.0 size=12203008kB time=03:20:46.94 bitrate=8298.1kbits/s speed=67.4x    frame=725044 fps=4046 q=-1.0 size=12239616kB time=03:21:18.62 bitrate=8301.2kbits/s speed=67.4x    frame=726724 fps=4044 q=-1.0 size=12271872kB time=03:21:46.58 bitrate=8303.8kbits/s speed=67.4x    frame=728587 fps=4043 q=-1.0 size=12308480kB time=03:22:17.64 bitrate=8307.3kbits/s speed=67.4x    frame=730450 fps=4042 q=-1.0 size=12345344kB time=03:22:48.65 bitrate=8310.9kbits/s speed=67.3x    frame=732214 fps=4040 q=-1.0 size=12381440kB time=03:23:18.03 bitrate=8315.2kbits/s speed=67.3x    frame=734120 fps=4040 q=-1.0 size=12415232kB time=03:23:49.80 bitrate=8316.2kbits/s speed=67.3x    frame=736376 fps=4041 q=-1.0 size=12451072kB time=03:24:27.42 bitrate=8314.6kbits/s speed=67.3x    frame=738948 fps=4044 q=-1.0 size=12487168kB time=03:25:10.27 bitrate=8309.7kbits/s speed=67.4x    frame=740648 fps=4042 q=-1.0 size=12520192kB time=03:25:38.56 bitrate=8312.6kbits/s speed=67.3x    frame=742522 fps=4042 q=-1.0 size=12557568kB time=03:26:09.78 bitrate=8316.4kbits/s speed=67.3x    frame=744454 fps=4041 q=-1.0 size=12594688kB time=03:26:42.00 bitrate=8319.3kbits/s speed=67.3x    frame=746328 fps=4040 q=-1.0 size=12630528kB time=03:27:13.23 bitrate=8322.0kbits/s speed=67.3x    frame=748425 fps=4041 q=-1.0 size=12666624kB time=03:27:48.14 bitrate=8322.4kbits/s speed=67.3x    frame=750287 fps=4040 q=-1.0 size=12702720kB time=03:28:19.19 bitrate=8325.4kbits/s speed=67.3x    frame=751917 fps=4038 q=-1.0 size=12735232kB time=03:28:46.31 bitrate=8328.6kbits/s speed=67.3x    frame=753953 fps=4038 q=-1.0 size=12771840kB time=03:29:20.26 bitrate=8330.0kbits/s speed=67.3x    frame=755674 fps=4036 q=-1.0 size=12807168kB time=03:29:48.90 bitrate=8334.0kbits/s speed=67.2x    frame=757710 fps=4036 q=-1.0 size=12841472kB time=03:30:22.85 bitrate=8333.9kbits/s speed=67.2x    frame=759538 fps=4035 q=-1.0 size=12877312kB time=03:30:53.31 bitrate=8337.0kbits/s speed=67.2x    frame=761227 fps=4033 q=-1.0 size=12911872kB time=03:31:21.46 bitrate=8340.8kbits/s speed=67.2x    frame=763122 fps=4033 q=-1.0 size=12948224kB time=03:31:53.03 bitrate=8343.6kbits/s speed=67.2x    frame=764936 fps=4032 q=-1.0 size=12984064kB time=03:32:23.24 bitrate=8346.8kbits/s speed=67.2x    frame=766661 fps=4030 q=-1.0 size=13016832kB time=03:32:51.98 bitrate=8349.0kbits/s speed=67.1x    frame=768440 fps=4029 q=-1.0 size=13051904kB time=03:33:21.62 bitrate=8352.2kbits/s speed=67.1x    frame=770213 fps=4028 q=-1.0 size=13086976kB time=03:33:51.15 bitrate=8355.3kbits/s speed=67.1x    frame=771800 fps=4025 q=-1.0 size=13120000kB time=03:34:17.59 bitrate=8359.2kbits/s speed=67.1x    frame=774358 fps=4028 q=-1.0 size=13152768kB time=03:35:00.17 bitrate=8352.4kbits/s speed=67.1x    frame=776411 fps=4028 q=-1.0 size=13187328kB time=03:35:34.38 bitrate=8352.2kbits/s speed=67.1x    frame=778255 fps=4028 q=-1.0 size=13220608kB time=03:36:05.13 bitrate=8353.4kbits/s speed=67.1x    frame=780292 fps=4028 q=-1.0 size=13255936kB time=03:36:39.04 bitrate=8353.9kbits/s speed=67.1x    frame=782612 fps=4029 q=-1.0 size=13287168kB time=03:37:17.71 bitrate=8348.7kbits/s speed=67.1x    frame=784456 fps=4028 q=-1.0 size=13323520kB time=03:37:48.40 bitrate=8351.9kbits/s speed=67.1x    frame=786378 fps=4028 q=-1.0 size=13359360kB time=03:38:20.44 bitrate=8353.9kbits/s speed=67.1x    frame=788410 fps=4028 q=-1.0 size=13395456kB time=03:38:54.28 bitrate=8354.9kbits/s speed=67.1x    frame=790689 fps=4029 q=-1.0 size=13434112kB time=03:39:32.26 bitrate=8354.8kbits/s speed=67.1x    frame=793041 fps=4031 q=-1.0 size=13469184kB time=03:40:11.43 bitrate=8351.8kbits/s speed=67.2x    frame=795579 fps=4034 q=-1.0 size=13506048kB time=03:40:53.71 bitrate=8348.0kbits/s speed=67.2x    frame=797978 fps=4036 q=-1.0 size=13542144kB time=03:41:33.68 bitrate=8345.1kbits/s speed=67.2x    frame=800433 fps=4038 q=-1.0 size=13575424kB time=03:42:14.56 bitrate=8340.0kbits/s speed=67.3x    frame=802108 fps=4036 q=-1.0 size=13608960kB time=03:42:42.49 bitrate=8343.1kbits/s speed=67.2x    frame=804572 fps=4038 q=-1.0 size=13641984kB time=03:43:23.53 bitrate=8337.7kbits/s speed=67.3x    frame=806793 fps=4039 q=-1.0 size=13673984kB time=03:44:00.51 bitrate=8334.3kbits/s speed=67.3x    frame=808323 fps=4037 q=-1.0 size=13703936kB time=03:44:25.95 bitrate=8336.8kbits/s speed=67.2x    frame=810163 fps=4036 q=-1.0 size=13739008kB time=03:44:56.64 bitrate=8339.1kbits/s speed=67.2x    frame=811907 fps=4035 q=-1.0 size=13772032kB time=03:45:25.65 bitrate=8341.2kbits/s speed=67.2x    frame=814417 fps=4037 q=-1.0 size=13805056kB time=03:46:07.48 bitrate=8335.4kbits/s speed=67.3x    frame=816567 fps=4038 q=-1.0 size=13837824kB time=03:46:43.30 bitrate=8333.2kbits/s speed=67.3x    frame=818181 fps=4036 q=-1.0 size=13870080kB time=03:47:10.20 bitrate=8336.2kbits/s speed=67.2x    frame=819997 fps=4035 q=-1.0 size=13903104kB time=03:47:40.45 bitrate=8337.5kbits/s speed=67.2x    frame=823491 fps=4042 q=-1.0 size=13934336kB time=03:48:38.65 bitrate=8320.8kbits/s speed=67.3x    frame=825425 fps=4041 q=-1.0 size=13965056kB time=03:49:10.85 bitrate=8319.6kbits/s speed=67.3x    frame=827264 fps=4040 q=-1.0 size=13999360kB time=03:49:41.51 bitrate=8321.5kbits/s speed=67.3x    frame=829174 fps=4040 q=-1.0 size=14032896kB time=03:50:13.29 bitrate=8322.2kbits/s speed=67.3x    frame=831048 fps=4039 q=-1.0 size=14064896kB time=03:50:44.52 bitrate=8322.4kbits/s speed=67.3x    frame=833097 fps=4039 q=-1.0 size=14097152kB time=03:51:18.69 bitrate=8320.9kbits/s speed=67.3x    frame=834735 fps=4038 q=-1.0 size=14128896kB time=03:51:45.98 bitrate=8323.3kbits/s speed=67.3x    frame=837175 fps=4040 q=-1.0 size=14160640kB time=03:52:26.63 bitrate=8317.7kbits/s speed=67.3x    frame=839365 fps=4040 q=-1.0 size=14192384kB time=03:53:03.09 bitrate=8314.6kbits/s speed=67.3x    frame=841027 fps=4039 q=-1.0 size=14225664kB time=03:53:30.77 bitrate=8317.6kbits/s speed=67.3x    frame=842934 fps=4038 q=-1.0 size=14259968kB time=03:54:02.55 bitrate=8318.8kbits/s speed=67.3x    frame=844776 fps=4037 q=-1.0 size=14292992kB time=03:54:33.23 bitrate=8319.9kbits/s speed=67.3x    frame=846542 fps=4036 q=-1.0 size=14323968kB time=03:55:02.68 bitrate=8320.5kbits/s speed=67.2x    frame=848965 fps=4038 q=-1.0 size=14358272kB time=03:55:43.03 bitrate=8316.7kbits/s speed=67.3x    frame=851355 fps=4040 q=-1.0 size=14391296kB time=03:56:22.83 bitrate=8312.4kbits/s speed=67.3x    frame=853123 fps=4038 q=-1.0 size=14423808kB time=03:56:52.27 bitrate=8313.9kbits/s speed=67.3x    frame=854952 fps=4038 q=-1.0 size=14458368kB time=03:57:22.73 bitrate=8316.0kbits/s speed=67.3x    frame=856896 fps=4037 q=-1.0 size=14492928kB time=03:57:55.13 bitrate=8317.0kbits/s speed=67.3x    frame=859237 fps=4039 q=-1.0 size=14527744kB time=03:58:34.14 bitrate=8314.2kbits/s speed=67.3x    frame=861530 fps=4040 q=-1.0 size=14559488kB time=03:59:12.32 bitrate=8310.2kbits/s speed=67.3x    frame=863439 fps=4039 q=-1.0 size=14591744kB time=03:59:44.14 bitrate=8310.2kbits/s speed=67.3x    frame=865532 fps=4040 q=-1.0 size=14625024kB time=04:00:19.01 bitrate=8309.0kbits/s speed=67.3x    frame=867492 fps=4040 q=-1.0 size=14659584kB time=04:00:51.67 bitrate=8309.9kbits/s speed=67.3x    frame=870033 fps=4042 q=-1.0 size=14689792kB time=04:01:33.99 bitrate=8302.7kbits/s speed=67.3x    frame=871898 fps=4041 q=-1.0 size=14723840kB time=04:02:05.06 bitrate=8304.1kbits/s speed=67.3x    frame=873970 fps=4041 q=-1.0 size=14757888kB time=04:02:39.61 bitrate=8303.6kbits/s speed=67.3x    frame=875753 fps=4040 q=-1.0 size=14792192kB time=04:03:09.32 bitrate=8305.9kbits/s speed=67.3x    frame=877729 fps=4040 q=-1.0 size=14826752kB time=04:03:42.24 bitrate=8306.6kbits/s speed=67.3x    frame=880399 fps=4043 q=-1.0 size=14860032kB time=04:04:26.71 bitrate=8300.0kbits/s speed=67.4x    frame=883122 fps=4046 q=-1.0 size=14892288kB time=04:05:12.08 bitrate=8292.3kbits/s speed=67.4x    frame=885184 fps=4046 q=-1.0 size=14924544kB time=04:05:46.43 bitrate=8290.9kbits/s speed=67.4x    frame=887781 fps=4049 q=-1.0 size=14957312kB time=04:06:29.69 bitrate=8284.8kbits/s speed=67.5x    frame=889745 fps=4049 q=-1.0 size=14989568kB time=04:07:02.39 bitrate=8284.4kbits/s speed=67.4x    frame=893083 fps=4055 q=-1.0 size=15021568kB time=04:07:58.03 bitrate=8271.0kbits/s speed=67.5x    frame=895656 fps=4057 q=-1.0 size=15054592kB time=04:08:40.87 bitrate=8265.4kbits/s speed=67.6x    frame=897732 fps=4057 q=-1.0 size=15087360kB time=04:09:15.44 bitrate=8264.3kbits/s speed=67.6x    frame=899845 fps=4058 q=-1.0 size=15120640kB time=04:09:50.66 bitrate=8263.0kbits/s speed=67.6x    frame=902463 fps=4060 q=-1.0 size=15153664kB time=04:10:34.25 bitrate=8257.1kbits/s speed=67.6x    frame=904124 fps=4059 q=-1.0 size=15186432kB time=04:11:01.94 bitrate=8259.7kbits/s speed=67.6x    frame=906034 fps=4058 q=-1.0 size=15221504kB time=04:11:33.76 bitrate=8261.3kbits/s speed=67.6x    frame=907794 fps=4057 q=-1.0 size=15255552kB time=04:12:03.08 bitrate=8263.8kbits/s speed=67.6x    frame=909687 fps=4056 q=-1.0 size=15290624kB time=04:12:34.61 bitrate=8265.5kbits/s speed=67.6x    frame=911307 fps=4055 q=-1.0 size=15321856kB time=04:13:01.62 bitrate=8267.7kbits/s speed=67.5x    frame=913160 fps=4054 q=-1.0 size=15358208kB time=04:13:32.48 bitrate=8270.5kbits/s speed=67.5x    frame=915054 fps=4053 q=-1.0 size=15395584kB time=04:14:04.04 bitrate=8273.4kbits/s speed=67.5x    frame=917046 fps=4053 q=-1.0 size=15428096kB time=04:14:37.22 bitrate=8272.9kbits/s speed=67.5x    frame=919069 fps=4053 q=-1.0 size=15463424kB time=04:15:10.93 bitrate=8273.6kbits/s speed=67.5x    frame=920883 fps=4052 q=-1.0 size=15499264kB time=04:15:41.16 bitrate=8276.4kbits/s speed=67.5x    frame=922587 fps=4051 q=-1.0 size=15532288kB time=04:16:09.53 bitrate=8278.7kbits/s speed=67.5x    frame=924587 fps=4050 q=-1.0 size=15567872kB time=04:16:42.87 bitrate=8279.8kbits/s speed=67.5x    frame=926758 fps=4051 q=-1.0 size=15601664kB time=04:17:19.02 bitrate=8278.3kbits/s speed=67.5x    frame=928407 fps=4049 q=-1.0 size=15635200kB time=04:17:46.49 bitrate=8281.4kbits/s speed=67.5x    frame=930098 fps=4048 q=-1.0 size=15668480kB time=04:18:14.64 bitrate=8283.9kbits/s speed=67.4x    frame=931718 fps=4046 q=-1.0 size=15700736kB time=04:18:41.65 bitrate=8286.5kbits/s speed=67.4x    frame=933478 fps=4045 q=-1.0 size=15735040kB time=04:19:10.99 bitrate=8289.0kbits/s speed=67.4x    frame=935172 fps=4044 q=-1.0 size=15769344kB time=04:19:39.21 bitrate=8292.0kbits/s speed=67.4x    frame=936968 fps=4043 q=-1.0 size=15804928kB time=04:20:09.11 bitrate=8294.8kbits/s speed=67.3x    frame=938597 fps=4041 q=-1.0 size=15838208kB time=04:20:36.28 bitrate=8297.8kbits/s speed=67.3x    frame=940360 fps=4040 q=-1.0 size=15873024kB time=04:21:05.64 bitrate=8300.4kbits/s speed=67.3x    frame=941992 fps=4038 q=-1.0 size=15905024kB time=04:21:32.80 bitrate=8302.8kbits/s speed=67.3x    frame=943798 fps=4037 q=-1.0 size=15940608kB time=04:22:02.90 bitrate=8305.4kbits/s speed=67.3x    frame=945693 fps=4037 q=-1.0 size=15977984kB time=04:22:34.48 bitrate=8308.2kbits/s speed=67.2x    frame=947265 fps=4035 q=-1.0 size=16009984kB time=04:23:00.68 bitrate=8311.0kbits/s speed=67.2x    frame=949052 fps=4034 q=-1.0 size=16045824kB time=04:23:30.45 bitrate=8314.0kbits/s speed=67.2x    frame=950838 fps=4033 q=-1.0 size=16081152kB time=04:24:00.19 bitrate=8316.6kbits/s speed=67.2x    frame=952438 fps=4031 q=-1.0 size=16112896kB time=04:24:26.85 bitrate=8319.0kbits/s speed=67.2x    frame=954610 fps=4032 q=-1.0 size=16146944kB time=04:25:03.03 bitrate=8317.6kbits/s speed=67.2x    frame=957482 fps=4035 q=-1.0 size=16178176kB time=04:25:50.91 bitrate=8308.7kbits/s speed=67.2x    frame=959309 fps=4035 q=-1.0 size=16211712kB time=04:26:21.34 bitrate=8310.1kbits/s speed=67.2x    frame=961992 fps=4037 q=-1.0 size=16247808kB time=04:27:06.04 bitrate=8305.4kbits/s speed=67.3x    frame=963921 fps=4037 q=-1.0 size=16281600kB time=04:27:38.15 bitrate=8306.0kbits/s speed=67.3x    frame=966403 fps=4039 q=-1.0 size=16316672kB time=04:28:19.50 bitrate=8302.5kbits/s speed=67.3x    frame=968165 fps=4038 q=-1.0 size=16351488kB time=04:28:48.89 bitrate=8305.1kbits/s speed=67.3x    frame=971065 fps=4041 q=-1.0 size=16382976kB time=04:29:37.20 bitrate=8296.2kbits/s speed=67.3x    frame=973221 fps=4042 q=-1.0 size=16416768kB time=04:30:13.12 bitrate=8294.9kbits/s speed=67.3x    frame=975123 fps=4041 q=-1.0 size=16451584kB time=04:30:44.82 bitrate=8296.3kbits/s speed=67.3x    frame=976822 fps=4040 q=-1.0 size=16486656kB time=04:31:13.08 bitrate=8299.5kbits/s speed=67.3x    frame=979108 fps=4041 q=-1.0 size=16521216kB time=04:31:51.20 bitrate=8297.5kbits/s speed=67.3x    frame=981891 fps=4044 q=-1.0 size=16554752kB time=04:32:37.55 bitrate=8290.8kbits/s speed=67.4x    frame=984186 fps=4045 q=-1.0 size=16586240kB time=04:33:15.77 bitrate=8287.2kbits/s speed=67.4x    frame=986491 fps=4047 q=-1.0 size=16620032kB time=04:33:54.20 bitrate=8284.6kbits/s speed=67.4x    frame=988553 fps=4047 q=-1.0 size=16654080kB time=04:34:28.57 bitrate=8284.3kbits/s speed=67.4x    frame=990587 fps=4047 q=-1.0 size=16686592kB time=04:35:02.46 bitrate=8283.4kbits/s speed=67.4x    frame=993088 fps=4049 q=-1.0 size=16717312kB time=04:35:44.10 bitrate=8277.8kbits/s speed=67.4x    frame=994838 fps=4048 q=-1.0 size=16749568kB time=04:36:13.25 bitrate=8279.2kbits/s speed=67.4x    frame=996634 fps=4047 q=-1.0 size=16782848kB time=04:36:43.17 bitrate=8280.6kbits/s speed=67.4x    frame=998575 fps=4046 q=-1.0 size=16819200kB time=04:37:15.52 bitrate=8282.5kbits/s speed=67.4x    frame=1000361 fps=4045 q=-1.0 size=16854272kB time=04:37:45.28 bitrate=8284.9kbits/s speed=67.4x    frame=1002587 fps=4046 q=-1.0 size=16890368kB time=04:38:22.36 bitrate=8284.2kbits/s speed=67.4x    frame=1004343 fps=4045 q=-1.0 size=16925696kB time=04:38:51.62 bitrate=8287.0kbits/s speed=67.4x    frame=1006628 fps=4046 q=-1.0 size=16958464kB time=04:39:29.66 bitrate=8284.2kbits/s speed=67.4x    frame=1009021 fps=4048 q=-1.0 size=16994560kB time=04:40:09.55 bitrate=8282.2kbits/s speed=67.4x    frame=1010895 fps=4047 q=-1.0 size=17029376kB time=04:40:40.76 bitrate=8283.7kbits/s speed=67.4x    frame=1012585 fps=4046 q=-1.0 size=17062144kB time=04:41:08.91 bitrate=8285.8kbits/s speed=67.4x    frame=1015136 fps=4048 q=-1.0 size=17097216kB time=04:41:51.39 bitrate=8282.0kbits/s speed=67.4x    frame=1017713 fps=4050 q=-1.0 size=17130240kB time=04:42:34.31 bitrate=8277.0kbits/s speed=67.5x    frame=1020278 fps=4052 q=-1.0 size=17162752kB time=04:43:17.01 bitrate=8271.9kbits/s speed=67.5x    frame=1023316 fps=4056 q=-1.0 size=17197056kB time=04:44:07.65 bitrate=8263.8kbits/s speed=67.6x    frame=1025908 fps=4058 q=-1.0 size=17230080kB time=04:44:50.80 bitrate=8258.8kbits/s speed=67.6x    frame=1029746 fps=4065 q=-1.0 size=17260800kB time=04:45:54.76 bitrate=8242.6kbits/s speed=67.7x    frame=1032301 fps=4067 q=-1.0 size=17296384kB time=04:46:37.29 bitrate=8239.2kbits/s speed=67.8x    frame=1034929 fps=4070 q=-1.0 size=17329664kB time=04:47:21.07 bitrate=8234.1kbits/s speed=67.8x    frame=1037752 fps=4073 q=-1.0 size=17361408kB time=04:48:08.14 bitrate=8226.7kbits/s speed=67.9x    frame=1039735 fps=4073 q=-1.0 size=17395200kB time=04:48:41.17 bitrate=8227.0kbits/s speed=67.8x    frame=1042049 fps=4074 q=-1.0 size=17430016kB time=04:49:19.74 bitrate=8225.2kbits/s speed=67.9x    frame=1044369 fps=4075 q=-1.0 size=17464576kB time=04:49:58.36 bitrate=8223.2kbits/s speed=67.9x    frame=1046331 fps=4075 q=-1.0 size=17498880kB time=04:50:31.06 bitrate=8223.9kbits/s speed=67.9x    frame=1048947 fps=4077 q=-1.0 size=17531904kB time=04:51:14.66 bitrate=8218.8kbits/s speed=67.9x    frame=1050824 fps=4076 q=-1.0 size=17565952kB time=04:51:45.91 bitrate=8220.1kbits/s speed=67.9x    frame=1052931 fps=4076 q=-1.0 size=17599488kB time=04:52:21.00 bitrate=8219.3kbits/s speed=67.9x    frame=1054844 fps=4076 q=-1.0 size=17632256kB time=04:52:52.90 bitrate=8219.7kbits/s speed=67.9x    frame=1056527 fps=4075 q=-1.0 size=17666560kB time=04:53:20.95 bitrate=8222.5kbits/s speed=67.9x    frame=1059510 fps=4078 q=-1.0 size=17698048kB time=04:54:10.63 bitrate=8214.0kbits/s speed=67.9x    frame=1062710 fps=4083 q=-1.0 size=17728768kB time=04:55:03.94 bitrate=8203.5kbits/s speed=  68x    frame=1065140 fps=4084 q=-1.0 size=17762816kB time=04:55:44.43 bitrate=8200.5kbits/s speed=  68x    frame=1067222 fps=4084 q=-1.0 size=17798912kB time=04:56:19.11 bitrate=8201.1kbits/s speed=  68x    frame=1069174 fps=4084 q=-1.0 size=17833728kB time=04:56:51.61 bitrate=8202.2kbits/s speed=  68x    frame=1071040 fps=4083 q=-1.0 size=17867264kB time=04:57:22.69 bitrate=8203.3kbits/s speed=  68x    frame=1073091 fps=4083 q=-1.0 size=17903872kB time=04:57:56.85 bitrate=8204.4kbits/s speed=  68x    frame=1075147 fps=4083 q=-1.0 size=17940224kB time=04:58:31.15 bitrate=8205.3kbits/s speed=  68x    frame=1077271 fps=4084 q=-1.0 size=17971712kB time=04:59:06.53 bitrate=8203.5kbits/s speed=  68x    frame=1079247 fps=4083 q=-1.0 size=18006016kB time=04:59:39.46 bitrate=8204.1kbits/s speed=  68x    frame=1081335 fps=4083 q=-1.0 size=18042624kB time=05:00:14.21 bitrate=8204.9kbits/s speed=  68x    frame=1083314 fps=4083 q=-1.0 size=18076928kB time=05:00:47.20 bitrate=8205.5kbits/s speed=  68x    frame=1085364 fps=4083 q=-1.0 size=18111232kB time=05:01:21.37 bitrate=8205.5kbits/s speed=  68x    frame=1087995 fps=4085 q=-1.0 size=18146560kB time=05:02:05.19 bitrate=8201.7kbits/s speed=68.1x    frame=1090048 fps=4086 q=-1.0 size=18184704kB time=05:02:39.39 bitrate=8203.4kbits/s speed=68.1x    frame=1092064 fps=4085 q=-1.0 size=18221056kB time=05:03:12.98 bitrate=8204.6kbits/s speed=68.1x    frame=1094043 fps=4085 q=-1.0 size=18257664kB time=05:03:45.92 bitrate=8206.3kbits/s speed=68.1x    frame=1095843 fps=4084 q=-1.0 size=18290432kB time=05:04:15.93 bitrate=8207.5kbits/s speed=  68x    frame=1098708 fps=4087 q=-1.0 size=18326784kB time=05:05:03.69 bitrate=8202.3kbits/s speed=68.1x    frame=1101236 fps=4089 q=-1.0 size=18359808kB time=05:05:45.81 bitrate=8198.2kbits/s speed=68.1x    frame=1102953 fps=4088 q=-1.0 size=18391552kB time=05:06:14.38 bitrate=8199.7kbits/s speed=68.1x    frame=1104927 fps=4088 q=-1.0 size=18427392kB time=05:06:47.26 bitrate=8201.0kbits/s speed=68.1x    frame=1106862 fps=4087 q=-1.0 size=18461952kB time=05:07:19.49 bitrate=8202.0kbits/s speed=68.1x    frame=1108776 fps=4087 q=-1.0 size=18496768kB time=05:07:51.38 bitrate=8203.3kbits/s speed=68.1x    frame=1110547 fps=4086 q=-1.0 size=18532864kB time=05:08:20.91 bitrate=8206.1kbits/s speed=68.1x    frame=1112735 fps=4086 q=-1.0 size=18567424kB time=05:08:57.33 bitrate=8205.3kbits/s speed=68.1x    frame=1114641 fps=4086 q=-1.0 size=18601984kB time=05:09:29.08 bitrate=8206.5kbits/s speed=68.1x    frame=1116499 fps=4085 q=-1.0 size=18636800kB time=05:10:00.07 bitrate=8208.2kbits/s speed=68.1x    frame=1118408 fps=4085 q=-1.0 size=18669568kB time=05:10:31.87 bitrate=8208.6kbits/s speed=  68x    frame=1120591 fps=4085 q=-1.0 size=18703872kB time=05:11:08.25 bitrate=8207.6kbits/s speed=68.1x    frame=1122644 fps=4085 q=-1.0 size=18737664kB time=05:11:42.46 bitrate=8207.4kbits/s speed=68.1x    frame=1124342 fps=4084 q=-1.0 size=18770688kB time=05:12:10.73 bitrate=8209.5kbits/s speed=  68x    frame=1126089 fps=4083 q=-1.0 size=18805504kB time=05:12:39.85 bitrate=8211.9kbits/s speed=  68x    frame=1127676 fps=4081 q=-1.0 size=18837248kB time=05:13:06.30 bitrate=8214.2kbits/s speed=  68x    frame=1130390 fps=4084 q=-1.0 size=18872576kB time=05:13:51.49 bitrate=8209.9kbits/s speed=  68x    frame=1133819 fps=4089 q=-1.0 size=18906624kB time=05:14:48.63 bitrate=8199.8kbits/s speed=68.1x    frame=1139871 fps=4103 q=-1.0 size=18937344kB time=05:16:29.44 bitrate=8169.5kbits/s speed=68.4x    frame=1141164 fps=4106 q=-1.0 Lsize=18943965kB time=05:16:51.00 bitrate=8163.1kbits/s speed=68.4x    
video:18449845kB audio:455911kB subtitle:0kB other streams:0kB global headers:0kB muxing overhead: 0.202100%
